<svg width="512" height="512" viewBox="0 0 512 512" fill="none" xmlns="http://www.w3.org/2000/svg">
  <path d="M256 64C256 64 128 128 128 256C128 384 256 448 256 448C256 448 384 384 384 256C384 128 256 64 256 64Z" fill="#0088FF"/>
  <path d="M256 128C256 128 192 160 192 256C192 352 256 384 256 384C256 384 320 352 320 256C320 160 256 128 256 128Z" fill="white"/>
  <path d="M256 192C256 192 224 208 224 256C224 304 256 320 256 320C256 320 288 304 288 256C288 208 256 192 256 192Z" fill="#0088FF"/>
</svg>