<svg width="512" height="512" viewBox="0 0 512 512" fill="none" xmlns="http://www.w3.org/2000/svg">
  <path d="M256 64C256 64 128 128 128 256C128 384 256 448 256 448C256 448 384 384 384 256C384 128 256 64 256 64ZM256 128C256 128 192 160 192 256C192 352 256 384 256 384C256 384 320 352 320 256C320 160 256 128 256 128ZM256 192C256 192 224 208 224 256C224 304 256 320 256 320C256 320 288 304 288 256C288 208 256 192 256 192Z" fill="#D4AF37"/>
  <path d="M384 256C384 128 256 64 256 64M256 64C256 64 128 128 128 256C128 384 256 448 256 448" stroke="#D4AF37" stroke-width="32"/>
  <path d="M320 256C320 160 256 128 256 128M256 128C256 128 192 160 192 256C192 352 256 384 256 384" stroke="#D4AF37" stroke-width="24"/>
  <path d="M288 256C288 208 256 192 256 192M256 192C256 192 224 208 224 256C224 304 256 320 256 320" stroke="#D4AF37" stroke-width="16"/>
  <path fill-rule="evenodd" clip-rule="evenodd" d="M256 64C256 64 128 128 128 256C128 384 256 448 256 448C256 448 384 384 384 256C384 128 256 64 256 64ZM256 128C256 128 192 160 192 256C192 352 256 384 256 384C256 384 320 352 320 256C320 160 256 128 256 128ZM256 192C256 192 224 208 224 256C224 304 256 320 256 320C256 320 288 304 288 256C288 208 256 192 256 192Z" fill="#D4AF37"/>
</svg>